# Blender v2.79 (sub 0) OBJ File: 'Street_Lamp_C.blend'
# www.blender.org
mtllib Street_Lamp_C.mtl
o LIght_C_Street_Circle
v -0.065643 -0.000501 -0.154645
v -0.155767 -0.000501 -0.062934
v -0.154645 -0.000501 0.065643
v -0.062934 -0.000501 0.155767
v 0.065643 -0.000501 0.154645
v 0.155767 -0.000501 0.062934
v 0.154645 -0.000501 -0.065643
v 0.062934 -0.000501 -0.155767
v -0.065643 0.054699 -0.154645
v -0.155767 0.054699 -0.062934
v -0.154645 0.054699 0.065643
v -0.062934 0.054699 0.155767
v 0.065643 0.054699 0.154645
v 0.155767 0.054699 0.062934
v 0.154645 0.054699 -0.065643
v 0.062934 0.054699 -0.155767
v -0.052514 0.094463 -0.123716
v -0.124614 0.094463 -0.050347
v -0.123716 0.094463 0.052514
v -0.050347 0.094463 0.124614
v 0.052514 0.094463 0.123716
v 0.124614 0.094463 0.050347
v 0.123716 0.094463 -0.052514
v 0.050347 0.094463 -0.124614
v -0.036760 0.838463 -0.086601
v -0.087229 0.838463 -0.035243
v -0.086601 0.838463 0.036760
v -0.035243 0.838463 0.087229
v 0.036760 0.838463 0.086601
v 0.087229 0.838463 0.035243
v 0.086601 0.838463 -0.036760
v 0.035243 0.838463 -0.087229
v -0.044112 0.838463 -0.103921
v -0.104675 0.838463 -0.042292
v -0.103921 0.838463 0.044112
v -0.042292 0.838463 0.104675
v 0.044112 0.838463 0.103921
v 0.104675 0.838463 0.042292
v 0.103921 0.838463 -0.044112
v 0.042292 0.838463 -0.104675
v -0.044112 0.910463 -0.103921
v -0.104675 0.910463 -0.042292
v -0.103921 0.910463 0.044112
v -0.042292 0.910463 0.104675
v 0.044112 0.910463 0.103921
v 0.104675 0.910463 0.042292
v 0.103921 0.910463 -0.044112
v 0.042292 0.910463 -0.104675
v -0.035290 0.915986 -0.083137
v -0.083740 0.915986 -0.033833
v -0.083137 0.915986 0.035290
v -0.033833 0.915986 0.083740
v 0.035290 0.915986 0.083137
v 0.083740 0.915986 0.033833
v 0.083137 0.915986 -0.035290
v 0.033833 0.915986 -0.083740
v -0.035290 1.940554 -0.083137
v -0.083740 1.940554 -0.033833
v -0.083137 1.940554 0.035290
v -0.033833 1.940554 0.083740
v 0.035290 1.940554 0.083137
v 0.083740 1.940554 0.033833
v 0.083137 1.940554 -0.035290
v 0.033833 1.940554 -0.083740
v -0.042348 1.940554 -0.099765
v -0.100488 1.940554 -0.040600
v -0.099765 1.940554 0.042347
v -0.040600 1.940554 0.100488
v 0.042348 1.940554 0.099765
v 0.100488 1.940554 0.040600
v 0.099764 1.940554 -0.042347
v 0.040600 1.940554 -0.100488
v -0.042348 1.997992 -0.099765
v -0.100488 1.997992 -0.040600
v -0.099765 1.997992 0.042347
v -0.040600 1.997992 0.100488
v 0.042348 1.997992 0.099765
v 0.100488 1.997992 0.040600
v 0.099764 1.997992 -0.042347
v 0.040600 1.997992 -0.100488
v -0.033878 2.024501 -0.079812
v -0.080391 2.024501 -0.032480
v -0.079812 2.024501 0.033878
v -0.032480 2.024501 0.080391
v 0.033878 2.024501 0.079812
v 0.080391 2.024501 0.032480
v 0.079812 2.024501 -0.033878
v 0.032480 2.024501 -0.080391
v 0.058665 0.106448 -0.115599
v 0.044047 0.826478 -0.079419
v 0.078638 0.826478 -0.045426
v 0.114557 0.106448 -0.060673
v 0.115599 0.106448 0.058665
v 0.079419 0.826478 0.044047
v 0.045426 0.826478 0.078638
v 0.060673 0.106448 0.114557
v -0.058665 0.106448 0.115599
v -0.044047 0.826478 0.079419
v -0.078638 0.826478 0.045426
v -0.114557 0.106448 0.060673
v -0.115599 0.106448 -0.058665
v -0.079419 0.826478 -0.044047
v -0.045427 0.826478 -0.078638
v -0.060673 0.106448 -0.114557
v -0.040258 0.106448 -0.123223
v -0.025012 0.826478 -0.087304
v 0.023484 0.826478 -0.087727
v 0.038102 0.106448 -0.123907
v 0.123223 0.106448 -0.040258
v 0.087304 0.826478 -0.025012
v 0.087727 0.826478 0.023484
v 0.123907 0.106448 0.038102
v 0.040258 0.106448 0.123223
v 0.025012 0.826478 0.087304
v -0.023484 0.826478 0.087727
v -0.038102 0.106448 0.123907
v -0.123223 0.106448 0.040258
v -0.087304 0.826478 0.025012
v -0.087727 0.826478 -0.023484
v -0.123907 0.106448 -0.038102
v 0.041153 0.826271 -0.076474
v 0.055771 0.106241 -0.112654
v 0.111663 0.106241 -0.057729
v 0.075744 0.826271 -0.042482
v 0.076474 0.826271 0.041153
v 0.112654 0.106241 0.055771
v 0.057729 0.106241 0.111663
v 0.042482 0.826271 0.075744
v -0.041153 0.826271 0.076474
v -0.055771 0.106241 0.112654
v -0.111663 0.106241 0.057729
v -0.075744 0.826271 0.042482
v -0.076474 0.826271 -0.041153
v -0.112654 0.106241 -0.055771
v -0.057729 0.106241 -0.111663
v -0.042482 0.826271 -0.075744
v -0.040222 0.106241 -0.119094
v -0.024976 0.826271 -0.083175
v 0.038138 0.106241 -0.119778
v 0.023520 0.826271 -0.083599
v 0.119094 0.106241 -0.040222
v 0.083175 0.826271 -0.024976
v 0.119778 0.106241 0.038138
v 0.083599 0.826271 0.023520
v 0.040222 0.106241 0.119094
v 0.024976 0.826271 0.083175
v -0.038138 0.106241 0.119778
v -0.023520 0.826271 0.083599
v -0.119094 0.106241 0.040222
v -0.083175 0.826271 0.024976
v -0.119778 0.106241 -0.038138
v -0.083599 0.826271 -0.023520
vt 0.494987 0.376615
vt 0.494987 0.376615
vt 0.494902 0.386381
vt 0.494902 0.386381
vt 0.511513 0.393432
vt 0.511513 0.393432
vt 0.518479 0.386587
vt 0.518479 0.386587
vt 0.518564 0.376821
vt 0.518564 0.376821
vt 0.511719 0.369855
vt 0.511719 0.369855
vt 0.501953 0.369770
vt 0.501953 0.369770
vt 0.501747 0.393347
vt 0.501747 0.393347
vt 0.516198 0.377777
vt 0.510722 0.372204
vt 0.502909 0.372136
vt 0.497336 0.377612
vt 0.497268 0.385425
vt 0.502744 0.390998
vt 0.510557 0.391066
vt 0.516130 0.385590
vt 0.651104 0.527909
vt 0.653485 0.575635
vt 0.653758 0.575622
vt 0.651378 0.527896
vt 0.662191 0.575635
vt 0.664484 0.575635
vt 0.664292 0.575622
vt 0.661999 0.575622
vt 0.665058 0.575635
vt 0.665087 0.575635
vt 0.664813 0.575622
vt 0.664785 0.575622
vt 0.666865 0.527909
vt 0.663160 0.527909
vt 0.662968 0.527896
vt 0.666673 0.527896
vt 0.667485 0.527909
vt 0.667439 0.527909
vt 0.667166 0.527896
vt 0.667211 0.527896
vt 0.656261 0.575635
vt 0.655250 0.527909
vt 0.655445 0.527896
vt 0.656456 0.575622
vt 0.513311 0.384393
vt 0.514626 0.384951
vt 0.514684 0.378389
vt 0.513358 0.378924
vt 0.509525 0.375023
vt 0.510083 0.373708
vt 0.503521 0.373650
vt 0.504056 0.374976
vt 0.500155 0.378809
vt 0.498840 0.378250
vt 0.498783 0.384813
vt 0.500108 0.384278
vt 0.509410 0.388226
vt 0.509945 0.389551
vt 0.503383 0.389494
vt 0.503941 0.388179
vt 0.498783 0.384813
vt 0.503383 0.389494
vt 0.509945 0.389551
vt 0.514626 0.384951
vt 0.514684 0.378389
vt 0.510083 0.373708
vt 0.503521 0.373650
vt 0.498840 0.378250
vt 0.509303 0.387961
vt 0.513048 0.384281
vt 0.513093 0.379031
vt 0.509413 0.375286
vt 0.504163 0.375241
vt 0.500418 0.378921
vt 0.500373 0.384171
vt 0.504053 0.387916
vt 0.504053 0.387916
vt 0.503517 0.389178
vt 0.509817 0.389233
vt 0.509303 0.387961
vt 0.513048 0.384281
vt 0.514310 0.384817
vt 0.514366 0.378517
vt 0.513093 0.379031
vt 0.509413 0.375286
vt 0.509950 0.374023
vt 0.503649 0.373968
vt 0.504163 0.375241
vt 0.500418 0.378921
vt 0.499156 0.378385
vt 0.499101 0.384685
vt 0.500373 0.384171
vt 0.503649 0.373968
vt 0.499156 0.378385
vt 0.499101 0.384685
vt 0.503517 0.389178
vt 0.509817 0.389233
vt 0.514310 0.384817
vt 0.514366 0.378517
vt 0.509950 0.374023
vt 0.509200 0.387707
vt 0.512795 0.384174
vt 0.512839 0.379134
vt 0.509306 0.375539
vt 0.504266 0.375495
vt 0.500671 0.379028
vt 0.500627 0.384068
vt 0.504160 0.387663
vt 0.670444 0.444322
vt 0.669176 0.441185
vt 0.669915 0.440529
vt 0.671142 0.443566
vt 0.673487 0.436949
vt 0.672818 0.437676
vt 0.676602 0.438271
vt 0.675833 0.438956
vt 0.676677 0.429638
vt 0.673540 0.430906
vt 0.672884 0.430167
vt 0.675921 0.428940
vt 0.669304 0.426595
vt 0.670031 0.427263
vt 0.670626 0.423480
vt 0.671311 0.424249
vt 0.661993 0.423405
vt 0.663260 0.426542
vt 0.662522 0.427198
vt 0.661295 0.424161
vt 0.658950 0.430778
vt 0.659618 0.430051
vt 0.655835 0.429456
vt 0.656604 0.428771
vt 0.655760 0.438089
vt 0.658897 0.436822
vt 0.659553 0.437560
vt 0.656516 0.438787
vt 0.663133 0.441132
vt 0.662406 0.440464
vt 0.661811 0.444247
vt 0.661126 0.443478
vt 0.664119 0.441191
vt 0.662840 0.444206
vt 0.668189 0.441226
vt 0.669416 0.444263
vt 0.673546 0.435963
vt 0.676560 0.437242
vt 0.673581 0.431893
vt 0.676618 0.430666
vt 0.668318 0.426536
vt 0.669597 0.423522
vt 0.664247 0.426501
vt 0.663021 0.423464
vt 0.658891 0.431764
vt 0.655876 0.430485
vt 0.658855 0.435835
vt 0.655819 0.437061
vt 0.660049 0.518827
vt 0.658912 0.574807
vt 0.661602 0.574807
vt 0.664394 0.518827
vt 0.664471 0.518827
vt 0.661659 0.574807
vt 0.659016 0.574807
vt 0.660201 0.518827
vt 0.651377 0.518827
vt 0.652513 0.574807
vt 0.649824 0.574807
vt 0.647031 0.518827
vt 0.646954 0.518827
vt 0.649767 0.574807
vt 0.652410 0.574807
vt 0.651225 0.518827
vt 0.652586 0.518827
vt 0.653771 0.574807
vt 0.657542 0.574807
vt 0.658678 0.518827
vt 0.664972 0.518827
vt 0.662180 0.574807
vt 0.662212 0.574807
vt 0.665025 0.518827
vt 0.658840 0.518827
vt 0.657655 0.574807
vt 0.653884 0.574807
vt 0.652748 0.518827
vt 0.646454 0.518827
vt 0.649246 0.574807
vt 0.649213 0.574807
vt 0.646401 0.518827
vt 0.655383 0.527909
vt 0.656352 0.575635
vt 0.656544 0.575622
vt 0.655575 0.527896
vt 0.651059 0.527909
vt 0.651332 0.527896
vt 0.651678 0.527909
vt 0.651870 0.527896
vt 0.653457 0.575635
vt 0.653730 0.575622
vt 0.654059 0.575635
vt 0.654251 0.575622
vt 0.656603 0.527909
vt 0.657614 0.575635
vt 0.657616 0.575622
vt 0.656606 0.527896
vt 0.661797 0.527909
vt 0.661800 0.527896
vt 0.660828 0.575635
vt 0.660831 0.575622
vt 0.661940 0.527909
vt 0.660930 0.575635
vt 0.660927 0.575622
vt 0.661938 0.527896
vt 0.666934 0.527909
vt 0.664536 0.575635
vt 0.664341 0.575622
vt 0.666739 0.527896
vt 0.656746 0.527909
vt 0.656744 0.527896
vt 0.663293 0.527909
vt 0.663098 0.527896
vt 0.657715 0.575635
vt 0.657713 0.575622
vt 0.662283 0.575635
vt 0.662088 0.575622
vt 0.651609 0.527909
vt 0.654007 0.575635
vt 0.654203 0.575622
vt 0.651805 0.527896
vt 0.190587 0.526864
vt 0.190587 0.620848
vt 0.190532 0.620848
vt 0.190532 0.526864
vt 0.201317 0.526864
vt 0.201317 0.620848
vt 0.205839 0.620848
vt 0.205839 0.526864
vt 0.205895 0.526864
vt 0.205895 0.620848
vt 0.201450 0.620848
vt 0.201450 0.526864
vt 0.195110 0.526864
vt 0.195110 0.620848
vt 0.194976 0.620848
vt 0.194976 0.526864
vn -1.0000 0.0000 0.0087
vn 0.7009 0.0000 -0.7133
vn 0.7133 0.0000 0.7009
vn -0.7009 0.0000 0.7133
vn -0.7133 0.0000 -0.7009
vn -0.0087 0.0000 -1.0000
vn 1.0000 0.0000 -0.0087
vn 0.0087 0.0000 1.0000
vn 0.5622 0.6154 0.5525
vn -0.5525 0.6154 0.5622
vn -0.5622 0.6154 -0.5525
vn -0.0069 0.6154 -0.7882
vn 0.7882 0.6154 -0.0069
vn 0.0069 0.6154 0.7882
vn -0.7882 0.6154 0.0069
vn 0.5525 0.6154 -0.5622
vn -0.0098 -0.0207 -0.9997
vn 0.0350 -0.9987 -0.0357
vn 0.0500 -0.9987 -0.0004
vn -0.0351 0.9987 0.0357
vn -0.0500 0.9987 0.0004
vn -0.7015 -0.0207 0.7124
vn 0.7138 -0.0207 0.7000
vn 0.0098 -0.0207 0.9997
vn 0.0000 -1.0000 0.0000
vn -0.7132 0.0000 -0.7009
vn 0.7009 0.0000 -0.7132
vn 0.7132 0.0000 0.7009
vn -0.7009 0.0000 0.7132
vn 0.1794 0.9667 -0.1825
vn 0.1825 0.9667 0.1794
vn -0.1794 0.9667 0.1825
vn -0.1825 0.9667 -0.1794
vn -0.0022 0.9667 -0.2559
vn 0.2559 0.9667 -0.0022
vn 0.0022 0.9667 0.2559
vn -0.2559 0.9667 0.0022
vn 0.5593 0.6028 -0.5691
vn 0.5691 0.6028 0.5593
vn -0.5593 0.6028 0.5691
vn -0.5691 0.6028 -0.5593
vn -0.0070 0.6028 -0.7979
vn 0.7979 0.6028 -0.0070
vn 0.0070 0.6028 0.7979
vn -0.7979 0.6028 0.0070
vn 0.0000 1.0000 -0.0000
vn 0.7000 0.0500 -0.7124
vn 0.7124 0.0500 0.7000
vn -0.7000 0.0500 0.7124
vn -0.7124 0.0500 -0.7000
vn -0.0087 0.0500 -0.9987
vn 0.9987 0.0500 -0.0087
vn 0.0087 0.0500 0.9987
vn -0.9987 0.0500 0.0087
vn -0.7138 -0.0207 -0.7000
vn -0.0077 -0.0207 -0.9998
vn -0.7124 -0.0207 -0.7015
vn 0.0500 0.9987 -0.0004
vn 0.0351 0.9987 -0.0357
vn -0.0500 -0.9987 0.0004
vn -0.0350 -0.9987 0.0357
vn 0.9997 -0.0207 -0.0098
vn 0.0077 -0.0207 0.9998
vn 0.7124 -0.0207 0.7015
vn 0.0004 0.9987 0.0500
vn -0.0004 -0.9987 -0.0500
vn -0.9997 -0.0207 0.0098
vn -0.7000 -0.0207 0.7138
vn -0.9998 -0.0207 0.0077
vn -0.0004 0.9987 -0.0500
vn -0.0357 0.9987 -0.0351
vn 0.0004 -0.9987 0.0500
vn 0.0357 -0.9987 0.0350
vn 0.7000 -0.0207 -0.7138
vn 0.9998 -0.0207 -0.0077
vn 0.7015 -0.0207 -0.7124
vn 0.0357 0.9987 0.0351
vn -0.0357 -0.9987 -0.0350
usemtl Metal_Color_Palette
s off
f 3/1/1 11/2/1 10/3/1 2/4/1
f 8/5/2 16/6/2 15/7/2 7/8/2
f 6/9/3 14/10/3 13/11/3 5/12/3
f 4/13/4 12/14/4 11/2/4 3/1/4
f 2/4/5 10/3/5 9/15/5 1/16/5
f 1/16/6 9/15/6 16/6/6 8/5/6
f 7/8/7 15/7/7 14/10/7 6/9/7
f 5/12/8 13/11/8 12/14/8 4/13/8
f 14/10/9 22/17/9 21/18/9 13/11/9
f 12/14/10 20/19/10 19/20/10 11/2/10
f 10/3/11 18/21/11 17/22/11 9/15/11
f 9/15/12 17/22/12 24/23/12 16/6/12
f 15/7/13 23/24/13 22/17/13 14/10/13
f 13/11/14 21/18/14 20/19/14 12/14/14
f 11/2/15 19/20/15 18/21/15 10/3/15
f 16/6/16 24/23/16 23/24/16 15/7/16
f 117/25/17 118/26/17 150/27/17 149/28/17
f 90/29/18 91/30/18 124/31/18 121/32/18
f 110/33/19 111/34/19 144/35/19 142/36/19
f 92/37/20 89/38/20 122/39/20 123/40/20
f 112/41/21 109/42/21 141/43/21 143/44/21
f 103/45/22 104/46/22 135/47/22 136/48/22
f 89/38/23 90/29/23 121/32/23 122/39/23
f 109/42/24 110/33/24 142/36/24 141/43/24
f 31/49/25 39/50/25 38/51/25 30/52/25
f 29/53/25 37/54/25 36/55/25 28/56/25
f 27/57/25 35/58/25 34/59/25 26/60/25
f 32/61/25 40/62/25 39/50/25 31/49/25
f 30/52/25 38/51/25 37/54/25 29/53/25
f 28/56/25 36/55/25 35/58/25 27/57/25
f 26/60/25 34/59/25 33/63/25 25/64/25
f 25/64/25 33/63/25 40/62/25 32/61/25
f 34/59/26 42/65/26 41/66/26 33/63/26
f 33/63/6 41/66/6 48/67/6 40/62/6
f 39/50/7 47/68/7 46/69/7 38/51/7
f 37/54/8 45/70/8 44/71/8 36/55/8
f 35/58/1 43/72/1 42/65/1 34/59/1
f 40/62/27 48/67/27 47/68/27 39/50/27
f 38/51/28 46/69/28 45/70/28 37/54/28
f 36/55/29 44/71/29 43/72/29 35/58/29
f 48/67/30 56/73/30 55/74/30 47/68/30
f 46/69/31 54/75/31 53/76/31 45/70/31
f 44/71/32 52/77/32 51/78/32 43/72/32
f 42/65/33 50/79/33 49/80/33 41/66/33
f 41/66/34 49/80/34 56/73/34 48/67/34
f 47/68/35 55/74/35 54/75/35 46/69/35
f 45/70/36 53/76/36 52/77/36 44/71/36
f 43/72/37 51/78/37 50/79/37 42/65/37
f 57/81/25 65/82/25 72/83/25 64/84/25
f 63/85/25 71/86/25 70/87/25 62/88/25
f 61/89/25 69/90/25 68/91/25 60/92/25
f 59/93/25 67/94/25 66/95/25 58/96/25
f 64/84/25 72/83/25 71/86/25 63/85/25
f 62/88/25 70/87/25 69/90/25 61/89/25
f 60/92/25 68/91/25 67/94/25 59/93/25
f 58/96/25 66/95/25 65/82/25 57/81/25
f 68/91/4 76/97/4 75/98/4 67/94/4
f 66/95/5 74/99/5 73/100/5 65/82/5
f 65/82/6 73/100/6 80/101/6 72/83/6
f 71/86/7 79/102/7 78/103/7 70/87/7
f 69/90/8 77/104/8 76/97/8 68/91/8
f 67/94/1 75/98/1 74/99/1 66/95/1
f 72/83/2 80/101/2 79/102/2 71/86/2
f 70/87/3 78/103/3 77/104/3 69/90/3
f 80/101/38 88/105/38 87/106/38 79/102/38
f 78/103/39 86/107/39 85/108/39 77/104/39
f 76/97/40 84/109/40 83/110/40 75/98/40
f 74/99/41 82/111/41 81/112/41 73/100/41
f 73/100/42 81/112/42 88/105/42 80/101/42
f 79/102/43 87/106/43 86/107/43 78/103/43
f 77/104/44 85/108/44 84/109/44 76/97/44
f 75/98/45 83/110/45 82/111/45 74/99/45
f 82/111/46 83/110/46 84/109/46 81/112/46
f 85/108/46 88/105/46 81/112/46 84/109/46
f 86/107/46 87/106/46 88/105/46 85/108/46
f 24/113/47 32/114/47 90/115/47 89/116/47
f 32/114/47 31/117/47 91/118/47 90/115/47
f 31/117/47 23/119/47 92/120/47 91/118/47
f 23/119/47 24/113/47 89/116/47 92/120/47
f 22/121/48 30/122/48 94/123/48 93/124/48
f 30/122/48 29/125/48 95/126/48 94/123/48
f 29/125/48 21/127/48 96/128/48 95/126/48
f 21/127/48 22/121/48 93/124/48 96/128/48
f 20/129/49 28/130/49 98/131/49 97/132/49
f 28/130/49 27/133/49 99/134/49 98/131/49
f 27/133/49 19/135/49 100/136/49 99/134/49
f 19/135/49 20/129/49 97/132/49 100/136/49
f 18/137/50 26/138/50 102/139/50 101/140/50
f 26/138/50 25/141/50 103/142/50 102/139/50
f 25/141/50 17/143/50 104/144/50 103/142/50
f 17/143/50 18/137/50 101/140/50 104/144/50
f 17/143/51 25/141/51 106/145/51 105/146/51
f 25/141/51 32/114/51 107/147/51 106/145/51
f 32/114/51 24/113/51 108/148/51 107/147/51
f 24/113/51 17/143/51 105/146/51 108/148/51
f 23/119/52 31/117/52 110/149/52 109/150/52
f 31/117/52 30/122/52 111/151/52 110/149/52
f 30/122/52 22/121/52 112/152/52 111/151/52
f 22/121/52 23/119/52 109/150/52 112/152/52
f 21/127/53 29/125/53 114/153/53 113/154/53
f 29/125/53 28/130/53 115/155/53 114/153/53
f 28/130/53 20/129/53 116/156/53 115/155/53
f 20/129/53 21/127/53 113/154/53 116/156/53
f 19/135/54 27/133/54 118/157/54 117/158/54
f 27/133/54 26/138/54 119/159/54 118/157/54
f 26/138/54 18/137/54 120/160/54 119/159/54
f 18/137/54 19/135/54 117/158/54 120/160/54
f 122/161/47 121/162/47 124/163/47 123/164/47
f 126/165/48 125/166/48 128/167/48 127/168/48
f 130/169/49 129/170/49 132/171/49 131/172/49
f 134/173/50 133/174/50 136/175/50 135/176/50
f 137/177/51 138/178/51 140/179/51 139/180/51
f 141/181/52 142/182/52 144/183/52 143/184/52
f 145/185/53 146/186/53 148/187/53 147/188/53
f 149/189/54 150/190/54 152/191/54 151/192/54
f 97/193/55 98/194/55 129/195/55 130/196/55
f 111/34/56 112/41/56 143/44/56 144/35/56
f 91/30/57 92/37/57 123/40/57 124/31/57
f 120/197/58 117/25/58 149/28/58 151/198/58
f 100/199/59 97/193/59 130/196/59 131/200/59
f 118/26/60 119/201/60 152/202/60 150/27/60
f 98/194/61 99/203/61 132/204/61 129/195/61
f 105/205/62 106/206/62 138/207/62 137/208/62
f 119/201/63 120/197/63 151/198/63 152/202/63
f 99/203/64 100/199/64 131/200/64 132/204/64
f 108/209/65 105/205/65 137/208/65 139/210/65
f 106/206/66 107/211/66 140/212/66 138/207/66
f 113/213/67 114/214/67 146/215/67 145/216/67
f 93/217/68 94/218/68 125/219/68 126/220/68
f 107/211/69 108/209/69 139/210/69 140/212/69
f 116/221/70 113/213/70 145/216/70 147/222/70
f 96/223/71 93/217/71 126/220/71 127/224/71
f 114/214/72 115/225/72 148/226/72 146/215/72
f 94/218/73 95/227/73 128/228/73 125/219/73
f 101/229/74 102/230/74 133/231/74 134/232/74
f 115/225/75 116/221/75 147/222/75 148/226/75
f 95/227/76 96/223/76 127/224/76 128/228/76
f 104/46/77 101/229/77 134/232/77 135/47/77
f 102/230/78 103/45/78 136/48/78 133/231/78
usemtl Emission_Color_Palette
f 51/233/1 59/234/1 58/235/1 50/236/1
f 56/237/2 64/238/2 63/239/2 55/240/2
f 54/241/28 62/242/28 61/243/28 53/244/28
f 52/245/4 60/246/4 59/234/4 51/233/4
f 50/236/26 58/235/26 57/247/26 49/248/26
f 49/248/6 57/247/6 64/238/6 56/237/6
f 55/240/7 63/239/7 62/242/7 54/241/7
f 53/244/8 61/243/8 60/246/8 52/245/8
